<svg width="888" height="678" viewBox="0 0 888 678" fill="none" xmlns="http://www.w3.org/2000/svg">
<g clip-path="url(#clip0_3_52)">
<path d="M414.273 659.535L405.549 662.148L391.318 629.74L404.194 625.884L414.273 659.535Z" fill="#FFB8B8"/>
<path d="M415.645 656.02L398.464 661.166C395.56 662.036 393.12 664.024 391.682 666.693C390.244 669.361 389.924 672.491 390.794 675.395L390.9 675.751L419.031 667.325L415.645 656.02Z" fill="#2F2E41"/>
<path d="M331.364 666.663L322.813 663.528L330.836 629.055L343.456 633.682L331.364 666.663Z" fill="#FFB8B8"/>
<path d="M334.568 662.671L317.729 656.497C314.882 655.453 311.738 655.583 308.987 656.858C306.237 658.133 304.106 660.447 303.062 663.293L302.934 663.642L330.505 673.751L334.568 662.671Z" fill="#2F2E41"/>
<path d="M399.645 600.868L414.502 649.897L396.674 655.097L379.588 609.782L399.645 600.868Z" fill="#2F2E41"/>
<path d="M352.845 612.011L339.473 658.068L320.902 649.154L334.273 606.068L352.845 612.011Z" fill="#2F2E41"/>
<path d="M359.804 620.318C371.696 620.263 383.56 619.169 395.261 617.047L395.559 616.987V605.657L402.349 604.903L397.049 585.975C399.519 556.815 396.009 519.886 394.874 509.256C394.613 506.764 394.442 505.365 394.442 505.365L388.483 454.715L378.513 445.512L373.984 448.46L365.582 456.861C355.816 480.896 348.067 503.522 348.018 504.976L315.266 609.929L315.487 610.085C326.86 618.113 344.195 620.318 359.804 620.318Z" fill="#3F3D56"/>
<path opacity="0.2" d="M384.258 477.181L386.548 491.475L371.045 497.87L384.258 477.181Z" fill="black"/>
<path d="M353.838 445.438H389.682C390.419 445.437 391.126 445.143 391.647 444.622C392.168 444.101 392.462 443.394 392.463 442.656V427.207C392.452 421.723 390.266 416.467 386.384 412.594C382.503 408.72 377.243 406.544 371.76 406.544C366.276 406.544 361.016 408.72 357.135 412.594C353.253 416.467 351.067 421.723 351.057 427.207V442.656C351.057 443.394 351.351 444.101 351.872 444.622C352.393 445.143 353.1 445.437 353.838 445.438Z" fill="#2F2E41"/>
<path d="M367.802 444.507C359.419 444.507 352.623 437.711 352.623 429.328C352.623 420.945 359.419 414.149 367.802 414.149C376.185 414.149 382.981 420.945 382.981 429.328C382.981 437.711 376.185 444.507 367.802 444.507Z" fill="#FFB8B8"/>
<path d="M346.159 428.752H368.077L368.301 425.605L369.425 428.752H372.8L373.245 422.515L375.473 428.752H382.003V428.443C381.998 424.101 380.271 419.938 377.201 416.868C374.131 413.797 369.968 412.07 365.626 412.065H362.536C358.194 412.07 354.031 413.797 350.961 416.868C347.891 419.938 346.164 424.101 346.159 428.443V428.752Z" fill="#2F2E41"/>
<path d="M368.256 448.322C368.421 448.321 368.586 448.307 368.748 448.278L384.797 445.446V418.922H367.13L367.568 419.432C373.653 426.529 369.068 438.038 365.794 444.266C365.552 444.722 365.445 445.237 365.483 445.752C365.522 446.266 365.705 446.76 366.012 447.175C366.268 447.53 366.606 447.819 366.996 448.018C367.386 448.218 367.818 448.322 368.256 448.322Z" fill="#2F2E41"/>
<path d="M339.937 512.433H348.734C349.017 512.434 349.289 512.329 349.498 512.14C349.707 511.95 349.838 511.689 349.865 511.408L351.625 493.359H337.046L338.807 511.408C338.834 511.689 338.964 511.95 339.173 512.14C339.383 512.329 339.655 512.434 339.937 512.433Z" fill="#6C63FF"/>
<path d="M337.07 495.63H351.602C351.903 495.63 352.192 495.51 352.405 495.297C352.617 495.084 352.737 494.796 352.737 494.495V491.77C352.737 491.469 352.617 491.18 352.405 490.967C352.192 490.755 351.903 490.635 351.602 490.635H337.07C336.769 490.635 336.48 490.755 336.267 490.967C336.054 491.18 335.935 491.469 335.934 491.77V494.495C335.935 494.796 336.054 495.084 336.267 495.297C336.48 495.51 336.769 495.63 337.07 495.63Z" fill="#2F2E41"/>
<path opacity="0.2" d="M394.073 504.667C390.034 509.345 384.554 512.547 378.496 513.772C372.438 514.996 366.145 514.173 360.605 511.432L357.302 509.797L394.073 504.667Z" fill="black"/>
<path d="M341.255 501.173C341.932 500.412 342.768 499.809 343.703 499.407C344.639 499.004 345.651 498.811 346.669 498.842C347.687 498.872 348.685 499.126 349.595 499.585C350.504 500.043 351.302 500.695 351.932 501.495L367.257 497.193L372.143 505.869L350.415 511.641C349.001 512.61 347.28 513.026 345.579 512.812C343.878 512.597 342.315 511.766 341.186 510.475C340.057 509.185 339.44 507.526 339.453 505.811C339.466 504.097 340.107 502.446 341.255 501.173Z" fill="#FFB8B8"/>
<path d="M377.827 510.801C385.114 510.801 394.973 506.529 406.676 498.255C407.328 497.803 407.88 497.22 408.295 496.544C408.711 495.868 408.981 495.113 409.09 494.327C409.953 488.858 404.618 481.464 404.095 480.755L398.487 465.355C398.422 465.105 396.615 458.441 392.078 456.07C391.123 455.581 390.073 455.303 389 455.257C387.927 455.212 386.858 455.399 385.864 455.806C377.222 458.953 383.97 483.254 384.896 486.441L373.446 491.83L366.175 496.465L356.217 497.507L358.921 510.019L374.044 510.359C375.282 510.662 376.553 510.81 377.827 510.801Z" fill="#3F3D56"/>
<path d="M887.675 396.659C887.667 382.038 884.407 367.601 878.13 354.395C871.854 341.19 862.719 329.545 851.386 320.306C840.054 311.067 826.808 304.465 812.609 300.977C798.409 297.49 783.612 297.205 769.289 300.142C754.965 303.08 741.475 309.167 729.795 317.963C718.115 326.758 708.538 338.042 701.757 350.996C694.976 363.95 691.162 378.25 690.591 392.86C690.02 407.47 692.705 422.025 698.454 435.469C698.358 435.361 698.258 435.257 698.162 435.149C702.541 445.355 708.611 454.748 716.116 462.932C716.139 462.957 716.162 462.981 716.184 463.006C716.79 463.666 717.399 464.322 718.022 464.966C727.03 474.361 737.816 481.874 749.752 487.068C761.687 492.261 774.536 495.032 787.551 495.219L784.22 676.148H794.512L792.429 556.733L807.316 548.895L805.045 544.582L792.334 551.274L791.356 495.21C817.102 494.62 841.595 483.978 859.595 465.56C877.596 447.143 887.674 422.412 887.675 396.659Z" fill="#E6E6E6"/>
<path d="M595.087 348.612C595.078 331.477 591.257 314.558 583.902 299.082C576.547 283.606 565.841 269.96 552.56 259.133C539.28 248.306 523.757 240.568 507.116 236.481C490.476 232.394 473.135 232.06 456.349 235.502C439.564 238.945 423.754 246.079 410.066 256.386C396.378 266.694 385.154 279.917 377.208 295.098C369.262 310.279 364.792 327.038 364.122 344.159C363.453 361.281 366.601 378.338 373.337 394.093C373.224 393.967 373.108 393.845 372.995 393.719C378.127 405.679 385.24 416.686 394.036 426.278C394.062 426.307 394.089 426.335 394.116 426.364C394.825 427.137 395.539 427.907 396.269 428.661C406.826 439.672 419.466 448.476 433.454 454.563C447.441 460.649 462.499 463.896 477.752 464.115L473.848 676.148H485.908L483.467 536.204L500.913 527.019L498.252 521.964L483.356 529.806L482.21 464.105C512.382 463.413 541.086 450.941 562.181 429.358C583.276 407.774 595.087 378.792 595.087 348.612Z" fill="#E6E6E6"/>
<path d="M263.259 303.418C263.249 283.919 258.901 264.666 250.531 247.055C242.16 229.443 229.977 213.915 214.864 201.593C199.751 189.272 182.086 180.467 163.15 175.816C144.213 171.165 124.48 170.784 105.378 174.702C86.2763 178.62 68.2854 186.738 52.7086 198.467C37.1319 210.197 24.3595 225.245 15.3167 242.521C6.27402 259.796 1.18748 278.867 0.425642 298.352C-0.336191 317.836 3.24577 337.246 10.912 355.175C10.7835 355.032 10.6506 354.893 10.5227 354.749C16.362 368.359 24.4571 380.886 34.4667 391.801C34.4966 391.834 34.5273 391.866 34.5572 391.899C35.3649 392.779 36.1771 393.655 37.0081 394.512C49.022 407.043 63.4053 417.062 79.323 423.988C95.2408 430.914 112.376 434.609 129.733 434.859L125.291 676.148H139.016L136.238 516.895L156.091 506.442L153.062 500.69L136.111 509.614L134.807 434.847C169.142 434.06 201.807 419.867 225.812 395.305C249.818 370.744 263.258 337.763 263.259 303.418Z" fill="#E6E6E6"/>
<path d="M245.559 359.928C340.724 359.928 417.871 282.781 417.871 187.616C417.871 92.4511 340.724 15.3046 245.559 15.3046C150.394 15.3046 73.2471 92.4511 73.2471 187.616C73.2471 282.781 150.394 359.928 245.559 359.928Z" fill="#6C63FF"/>
<path opacity="0.2" d="M118.329 72.5256C102.257 110.123 100.076 152.21 112.178 191.267C124.28 230.324 149.875 263.805 184.39 285.728C218.905 307.65 260.09 316.586 300.587 310.938C341.084 305.289 378.252 285.425 405.452 254.895C395.633 277.866 380.938 298.427 362.384 315.154C343.831 331.881 321.862 344.374 298.001 351.768C274.139 359.163 248.956 361.28 224.195 357.975C199.434 354.67 175.687 346.022 154.6 332.628C133.513 319.234 115.591 301.417 102.074 280.409C88.5569 259.401 79.7689 235.705 76.3188 210.964C72.8686 186.223 74.8389 161.027 82.0929 137.123C89.3469 113.218 101.711 91.177 118.329 72.5256Z" fill="black"/>
<path d="M246.032 187.616H246.506L255.027 676.148H237.038L246.032 187.616Z" fill="#3F3D56"/>
<path d="M273.438 446.177L244.954 461.173L248.923 468.713L277.407 453.717L273.438 446.177Z" fill="#3F3D56"/>
<path d="M509.115 671.579C509.115 671.579 509.737 658.552 522.482 660.066Z" fill="#3F3D56"/>
<path d="M505.514 659.182C509.037 659.182 511.893 656.326 511.893 652.803C511.893 649.28 509.037 646.425 505.514 646.425C501.991 646.425 499.135 649.28 499.135 652.803C499.135 656.326 501.991 659.182 505.514 659.182Z" fill="#6C63FF"/>
<path d="M506.277 663.545H504.476V676.148H506.277V663.545Z" fill="#3F3D56"/>
<path d="M67.0829 669.778C67.0829 669.778 67.7046 656.751 80.4493 658.265Z" fill="#3F3D56"/>
<path d="M63.4818 657.381C67.0046 657.381 69.8604 654.526 69.8604 651.003C69.8604 647.48 67.0046 644.624 63.4818 644.624C59.959 644.624 57.1031 647.48 57.1031 651.003C57.1031 654.526 59.959 657.381 63.4818 657.381Z" fill="#6C63FF"/>
<path d="M64.2445 661.744H62.4439V674.348H64.2445V661.744Z" fill="#3F3D56"/>
<path d="M171.514 670.678C171.514 670.678 172.136 657.652 184.881 659.166Z" fill="#3F3D56"/>
<path d="M167.913 658.282C171.436 658.282 174.292 655.426 174.292 651.903C174.292 648.38 171.436 645.524 167.913 645.524C164.39 645.524 161.534 648.38 161.534 651.903C161.534 655.426 164.39 658.282 167.913 658.282Z" fill="#6C63FF"/>
<path d="M168.676 662.644H166.875V675.248H168.676V662.644Z" fill="#3F3D56"/>
<path d="M449.243 83.2985L462.038 73.0651C452.098 71.9685 448.014 77.3894 446.343 81.6801C438.578 78.4557 430.124 82.6815 430.124 82.6815L455.724 91.9752C454.433 88.5257 452.185 85.5158 449.243 83.2985Z" fill="#3F3D56"/>
<path d="M643.827 187.54L656.622 177.306C646.682 176.21 642.598 181.631 640.927 185.921C633.161 182.697 624.708 186.923 624.708 186.923L650.308 196.216C649.016 192.767 646.768 189.757 643.827 187.54Z" fill="#3F3D56"/>
<path d="M433.955 276.492L446.749 266.259C436.81 265.162 432.726 270.583 431.054 274.874C423.289 271.649 414.835 275.875 414.835 275.875L440.435 285.169C439.144 281.72 436.896 278.71 433.955 276.492Z" fill="#3F3D56"/>
<path d="M683.655 676.307C683.655 676.307 684.277 663.28 697.022 664.794Z" fill="#3F3D56"/>
<path d="M563.919 676.307C563.919 676.307 564.541 663.28 577.286 664.794Z" fill="#3F3D56"/>
<path d="M127.289 676.307C127.289 676.307 127.91 663.28 140.655 664.794Z" fill="#3F3D56"/>
<path d="M737.671 676.307C737.671 676.307 738.293 663.28 751.038 664.794Z" fill="#3F3D56"/>
<path d="M712.464 676.307C712.464 676.307 713.086 663.28 725.83 664.794Z" fill="#3F3D56"/>
<path d="M660.465 676.307C660.465 676.307 659.843 663.28 647.099 664.794Z" fill="#3F3D56"/>
<path d="M453.403 676.307C453.403 676.307 452.781 663.28 440.037 664.794Z" fill="#3F3D56"/>
<path d="M281.452 676.307C281.452 676.307 280.83 663.28 268.085 664.794Z" fill="#3F3D56"/>
<path d="M98.6969 676.307C98.6969 676.307 98.0752 663.28 85.3305 664.794Z" fill="#3F3D56"/>
<path d="M791.904 676.307C791.904 676.307 791.283 663.28 778.538 664.794Z" fill="#3F3D56"/>
<path d="M714.481 677.207C714.481 677.207 713.859 664.18 701.115 665.694Z" fill="#3F3D56"/>
<path d="M888 674.604H0V676.604H888V674.604Z" fill="#3F3D56"/>
</g>
<defs>
<clipPath id="clip0_3_52">
<rect width="888" height="677.207" fill="white"/>
</clipPath>
</defs>
</svg>
